<?xml version="1.0" standalone="no"?><!DOCTYPE svg PUBLIC "-//W3C//DTD SVG 1.1//EN" "http://www.w3.org/Graphics/SVG/1.1/DTD/svg11.dtd"><svg t="1546908357873" class="icon" style="" viewBox="0 0 1024 1024" version="1.1" xmlns="http://www.w3.org/2000/svg" p-id="4230" xmlns:xlink="http://www.w3.org/1999/xlink" width="200" height="200"><defs><style type="text/css"></style></defs><path d="M512.64 374.72c-95.68 0-173.22666667 77.76-173.22666667 173.65333333s77.54666667 173.54666667 173.22666667 173.54666667S685.86666667 644.26666667 685.86666667 548.37333333c-0.10666667-95.89333333-77.65333333-173.65333333-173.22666667-173.65333333z" p-id="4231"></path><path d="M927.68 244.58666667H738.98666667c-14.29333333-10.34666667-31.25333333-28.58666667-46.93333334-60.90666667-18.98666667-39.14666667-87.25333333-40.42666667-87.25333333-40.42666667H384.85333333s-22.50666667-5.54666667-48.96 40c-17.92 30.93333333-34.13333333 50.02666667-49.38666666 61.33333334H97.6c-34.02666667 0-61.44 29.22666667-61.44 65.28v505.81333333c0 36.05333333 27.52 65.28 61.44 65.28h830.08c34.02666667 0 61.54666667-29.22666667 61.54666667-65.28V309.86666667c-0.10666667-36.05333333-27.62666667-65.28-61.54666667-65.28zM512.53333333 765.65333333c-119.57333333 0-216.42666667-97.17333333-216.42666666-217.06666666s96.96-217.06666667 216.42666666-217.06666667c119.57333333 0 216.42666667 97.28 216.42666667 217.06666667 0 119.89333333-96.96 217.06666667-216.42666667 217.06666666z m310.4-390.82666666c-19.94666667 0-36.05333333-16.21333333-36.05333333-36.16 0-20.05333333 16.10666667-36.26666667 36.05333333-36.26666667 19.94666667 0 36.05333333 16.21333333 36.05333334 36.26666667 0 19.94666667-16.21333333 36.16-36.05333334 36.16z" p-id="4232"></path><path d="M122.98666667 157.54666667h100.8v43.84h-100.8z" p-id="4233"></path></svg>