<?xml version="1.0" standalone="no"?><!DOCTYPE svg PUBLIC "-//W3C//DTD SVG 1.1//EN" "http://www.w3.org/Graphics/SVG/1.1/DTD/svg11.dtd"><svg t="1546908371346" class="icon" style="" viewBox="0 0 1024 1024" version="1.1" xmlns="http://www.w3.org/2000/svg" p-id="4464" xmlns:xlink="http://www.w3.org/1999/xlink" width="200" height="200"><defs><style type="text/css"></style></defs><path d="M320.336 257.312c1.56 66.816 55.008 73.392 55.008 73.392s223.248 0 278.352 0c45.432 0 53.424-55.464 54.816-75l-2.472 0L708.8 255.632c0-96.528-90.936-81.792-90.936-81.792 0-97.848-104.712-93.84-104.712-93.84-111.624 0-108.864 93.84-108.864 93.84-89.568 0-85.44 81.792-85.44 81.792L320.336 257.312zM513.152 138.992c29.664 0 53.712 23.448 53.712 52.32 0 28.872-24.048 52.272-53.712 52.272-29.688 0-53.76-23.4-53.76-52.272C459.392 162.44 483.464 138.992 513.152 138.992zM940.16 255.68l-188.4 0c10.728 129.816-87.072 123.264-87.072 123.264L369.824 378.944c-97.8 0-96.144-98.832-94.248-123.264L83.864 255.68C55.208 255.68 32 278.312 32 306.08l0 565.776c0 27.888 23.208 50.496 51.864 50.496L940.16 922.352c28.608 0 51.84-22.584 51.84-50.496L992 306.08C992 278.312 968.768 255.68 940.16 255.68zM598.376 517.352l268.224 0c17.088 0 31.008 7.8 31.008 24.456 0 16.68-13.92 24.432-31.008 24.432L598.376 566.24c-17.136 0-31.008-7.728-31.008-24.432C567.368 525.152 581.24 517.352 598.376 517.352zM322.304 456.704c46.056 0 83.352 36.312 83.352 81.072 0 44.808-37.296 81.096-83.352 81.096-46.032 0-83.4-36.288-83.4-81.096C238.904 492.992 276.248 456.704 322.304 456.704zM486.968 767.696L158.984 767.696l0-97.824c0 0-1.368-36.24 86.808-56.4l78.552 65.712 64.776-63c0 0 97.848 8.064 97.848 65.664L486.968 767.696zM722.576 759.32l-127.68 0c-15.96 0-28.92-6.888-28.92-22.464s12.96-22.464 28.92-22.464l127.68 0c15.96 0 28.944 6.888 28.944 22.464S738.536 759.32 722.576 759.32zM870.032 664.16L596.288 664.16c-16.728 0-30.312-7.512-30.312-23.808 0-16.224 13.56-23.76 30.312-23.76l273.744 0c16.752 0 30.336 7.536 30.336 23.76C900.368 656.648 886.784 664.16 870.032 664.16z" p-id="4465"></path></svg>