<?xml version="1.0" standalone="no"?><!DOCTYPE svg PUBLIC "-//W3C//DTD SVG 1.1//EN" "http://www.w3.org/Graphics/SVG/1.1/DTD/svg11.dtd"><svg t="1546908375777" class="icon" style="" viewBox="0 0 1024 1024" version="1.1" xmlns="http://www.w3.org/2000/svg" p-id="4574" xmlns:xlink="http://www.w3.org/1999/xlink" width="200" height="200"><defs><style type="text/css"></style></defs><path d="M757.7628125 945.12875c-129.3609375 0-234.2371875-104.8753125-234.2371875-234.238125 0-129.3290625 104.8753125-234.2371875 234.2371875-234.2371875S992 581.5615625 992 710.890625C992 840.2525 887.1246875 945.12875 757.7628125 945.12875zM788.8465625 581.0853125l0 83.295L610.38875 664.3803125l0 83.295 178.456875 0 0 83.263125 133.8590625-124.9275L788.8465625 581.0853125zM479.9740625 712.0390625c0 72.5521875 27.1096875 138.511875 71.3015625 188.57625L100.416875 900.6153125c-34.760625 0-62.9315625-30.856875-62.9315625-69.2409375L37.4853125 158.3028125C37.4853125 120.07625 65.6553125 89.1875 100.416875 89.1875l134.983125 0c34.7925 0 152.6596875 24.7659375 173.36625 55.4671875l0.4996875 0.6871875c20.7375 30.639375-7.1521875 89.5096875 27.6403125 89.5096875l410.79 0c34.7296875 0 62.930625 30.9815625 62.930625 69.2409375l0 171.2109375c-43.755-29.1065625-95.97375-46.160625-152.191875-46.160625C604.6503125 429.1428125 479.9740625 555.81875 479.9740625 712.0390625z" p-id="4575"></path></svg>