<?xml version="1.0" standalone="no"?><!DOCTYPE svg PUBLIC "-//W3C//DTD SVG 1.1//EN" "http://www.w3.org/Graphics/SVG/1.1/DTD/svg11.dtd"><svg t="1546908363184" class="icon" style="" viewBox="0 0 1280 1024" version="1.1" xmlns="http://www.w3.org/2000/svg" p-id="4348" xmlns:xlink="http://www.w3.org/1999/xlink" width="250" height="200"><defs><style type="text/css"></style></defs><path d="M1142 992H122c-49.62 0-90-40.38-90-90V122c0-49.62 40.38-90 90-90h1020c49.62 0 90 40.38 90 90v780c0 49.62-40.38 90-90 90zM152 152v720l278.79-278.79a30.09 30.09 0 0 1 42.42 0L572 692 1112 152H152z m210 300a90 90 0 1 1 0-180 90 90 0 0 1 0 180z" p-id="4349"></path></svg>