<?xml version="1.0"?>
<svg viewBox="0 0 1706 1706" xmlns="http://www.w3.org/2000/svg">
<path d="M1053.16286562 373H168.215375A136.66277719 136.66277719 0 0 0 32.00067219 510.11085156v685.77829688a136.66277719 136.66277719 0 0 0 136.21470281 137.11085156h884.94749063a136.66277719 136.66277719 0 0 0 136.21470281-137.11085156V510.11085156A136.66277719 136.66277719 0 0 0 1053.16286562 373zM474.4744175 1093.05600906V612.94399094L883.34256219 852.88798094zM1501.68561969 485.01866969l-244.20070031 179.22987187v378.39906656l244.20070031 179.22987188c44.8074675 44.8074675 86.70245062 51.752625 130.38973125 22.40373375V462.61493594c-43.68728156-29.34889125-86.70245062-22.40373375-130.38973125 22.40373375z m0 0"></path>
</svg>