<?xml version="1.0" standalone="no"?><!DOCTYPE svg PUBLIC "-//W3C//DTD SVG 1.1//EN" "http://www.w3.org/Graphics/SVG/1.1/DTD/svg11.dtd"><svg t="1546908352880" class="icon" style="" viewBox="0 0 1024 1024" version="1.1" xmlns="http://www.w3.org/2000/svg" p-id="4119" xmlns:xlink="http://www.w3.org/1999/xlink" width="200" height="200"><defs><style type="text/css"></style></defs><path d="M324.72354313 48.80560063A60.42897 60.42897 0 0 1 367.76430781 32.01242938h560.91835781a60.29674031 60.29674031 0 0 1 42.84242063 16.85928562 50.77620187 50.77620187 0 0 1 15.80144812 35.63590312v673.11525094a50.90843156 50.90843156 0 0 1-16.59482718 36.759855 60.03228094 60.03228094 0 0 1-40.52840063 15.80144813h-112.39523906V196.30782313c0-10.97506406 1.0578375-22.47904781-3.37185656-33.05742375a57.91660594 57.91660594 0 0 0-54.14805938-35.23921313H309.12043906V84.11092812a50.7100875 50.7100875 0 0 1 15.60310407-35.43755718z" fill="" p-id="4120"></path><path d="M661.57868563 991.801655c-188.55954188 0.39668906-377.18519906 0-565.74474094 0a60.16451062 60.16451062 0 0 1-45.81758906-19.17330469 50.44562812 50.44562812 0 0 1-13.22296875-33.3879975V266.05898562a53.48691094 53.48691094 0 0 1 34.90863843-47.80103343 62.544645 62.544645 0 0 1 22.94185219-4.29746532h562.30676906a62.67687469 62.67687469 0 0 1 21.22286532 3.63631688 53.81748469 53.81748469 0 0 1 36.759855 48.59441156v666.83434125a56.19761906 56.19761906 0 0 1-4.36357969 25.91702063 57.78437625 57.78437625 0 0 1-48.99110156 33.05742281M396.32592125 822.21707469q77.68494469-89.78396156 155.50211906-179.43569344a22.34681812 22.34681812 0 0 0 8.13212625-19.17330563 18.24769781 18.24769781 0 0 0-15.99979312-17.71877906H466.87046281v-158.67563156a30.54505875 30.54505875 0 0 0-29.75168062-29.68556531H339.00434938a30.54505875 30.54505875 0 0 0-28.82607282 29.68556531v158.67563156h-74.70977625a15.86756344 15.86756344 0 0 0-13.22296968 6.94205906 23.00796656 23.00796656 0 0 0 0.99172312 27.10708688l156.69218625 182.34474656a11.43786844 11.43786844 0 0 0 16.0659075 0z" fill="" p-id="4121"></path></svg>